<svg xmlns="http://www.w3.org/2000/svg" viewBox="0 0 200 200" width="200" height="200">
  <title>Gutleber &amp; Co. — Emblema (para fondos oscuros)</title>
  <rect x="0" y="0" width="200" height="200" rx="34" fill="#F7F7F5"/>
  <g transform="translate(-962.829,-35.739) scale(1.0991)">
    <path d="M943.500 177.601 C936.808 175.485 933.468 173.314 928.640 167.944 C921.828 160.368 919.520 151.061 922.083 141.500 C924.604 132.099 932.280 123.456 944.238 116.558 L948.976 113.824 L943.541 107.417 C940.050 103.303 937.505 99.107 936.428 95.690 C934.865 90.731 934.863 89.982 936.402 84.689 C938.569 77.235 942.730 72.619 949.598 70.049 C958.837 66.592 968.191 67.857 975.691 73.578 C981.067 77.678 983.276 83.107 982.824 91.107 C982.501 96.834 981.970 98.479 979.409 101.694 C977.741 103.787 973.479 107.396 969.938 109.714 C966.397 112.032 962.375 114.759 961.000 115.774 C959.625 116.788 956.392 118.405 953.816 119.367 C946.599 122.061 937.411 128.451 934.015 133.138 C925.770 144.520 927.000 157.709 937.114 166.366 C945.513 173.555 957.459 174.863 967.563 169.701 C974.081 166.371 983.000 156.613 983.000 152.811 C983.000 152.052 978.154 145.822 972.230 138.966 C966.307 132.109 960.725 125.344 959.826 123.931 C958.280 121.501 958.301 121.293 960.208 120.102 C962.675 118.561 963.918 119.640 977.796 135.373 L987.388 146.245 L992.923 135.123 L998.459 124.000 L1002.230 124.000 C1004.303 124.000 1006.000 124.182 1006.000 124.405 C1006.000 124.627 1003.508 129.465 1000.461 135.155 C997.415 140.845 994.201 146.921 993.320 148.658 L991.717 151.816 L1002.109 163.968 C1013.007 176.713 1014.418 178.758 1011.555 177.659 C1010.610 177.297 1008.547 177.000 1006.972 177.000 C1004.562 177.000 1002.873 175.484 996.328 167.448 C989.283 158.798 988.429 158.066 987.274 159.698 C980.317 169.531 972.718 175.876 965.500 177.879 C960.238 179.339 948.528 179.191 943.500 177.601 Z  M961.912 107.334 C969.530 102.907 973.225 99.706 974.648 96.301 C978.889 86.151 972.805 76.143 961.349 74.425 C958.052 73.931 955.951 74.334 951.715 76.273 C947.287 78.300 945.906 79.563 944.149 83.192 C941.700 88.251 941.618 89.083 943.050 94.241 C944.085 97.966 954.180 110.000 956.270 110.000 C956.850 110.000 959.389 108.800 961.912 107.334 Z" fill="#121212" fill-rule="evenodd"/>
  </g>
</svg>
