<svg xmlns="http://www.w3.org/2000/svg" viewBox="0 0 200 240" width="400" height="480">
<path d="M 100.00,175.00 61.19,131.10 59.71,129.72 58.28,128.29 56.90,126.81 55.57,125.28 54.30,123.71 53.08,122.09 51.92,120.43 50.81,118.74 49.77,117.00 48.79,115.23 47.87,113.43 47.01,111.59 46.22,109.73 45.50,107.84 44.84,105.92 44.25,103.99 43.72,102.03 43.27,100.06 42.88,98.07 42.56,96.07 42.32,94.06 42.14,92.05 42.04,90.02 42.00,88.00 42.00,88.00 42.00,88.00 42.00,88.00 42.00,88.00 42.04,85.98 42.14,83.95 42.32,81.94 42.56,79.93 42.88,77.93 43.27,75.94 43.72,73.97 44.25,72.01 44.84,70.08 45.50,68.16 46.22,66.27 47.01,64.41 47.87,62.57 48.79,60.77 49.77,59.00 50.81,57.26 51.92,55.57 53.08,53.91 54.30,52.29 55.57,50.72 56.90,49.19 58.28,47.71 59.71,46.28 61.19,44.90 62.72,43.57 64.29,42.30 65.91,41.08 67.57,39.92 69.26,38.81 71.00,37.77 72.77,36.79 74.57,35.87 76.41,35.01 78.27,34.22 80.16,33.50 82.08,32.84 84.01,32.25 85.97,31.72 87.94,31.27 89.93,30.88 91.93,30.56 93.94,30.32 95.95,30.14 97.98,30.04 100.00,30.00 102.02,30.04 104.05,30.14 106.06,30.32 108.07,30.56 110.07,30.88 112.06,31.27 114.03,31.72 115.99,32.25 117.92,32.84 119.84,33.50 121.73,34.22 123.59,35.01 125.43,35.87 127.23,36.79 129.00,37.77 130.74,38.81 132.43,39.92 134.09,41.08 135.71,42.30 137.28,43.57 138.81,44.90 140.29,46.28 141.72,47.71 143.10,49.19 144.43,50.72 145.70,52.29 146.92,53.91 148.08,55.57 149.19,57.26 150.23,59.00 151.21,60.77 152.13,62.57 152.99,64.41 153.78,66.27 154.50,68.16 155.16,70.08 155.75,72.01 156.28,73.97 156.73,75.94 157.12,77.93 157.44,79.93 157.68,81.94 157.86,83.95 157.96,85.98 158.00,88.00 157.96,90.02 157.86,92.05 157.68,94.06 157.44,96.07 157.12,98.07 156.73,100.06 156.28,102.03 155.75,103.99 155.16,105.92 154.50,107.84 153.78,109.73 152.99,111.59 152.13,113.43 151.21,115.23 150.23,117.00 149.19,118.74 148.08,120.43 146.92,122.09 145.70,123.71 144.43,125.28 143.10,126.81 141.72,128.29 140.29,129.72 138.81,131.10 100.00,175.00 Z" fill="#0F2233"/>
<path d="M 100.00,51.00 122.00,73.00 122.00,99.00 78.00,99.00 78.00,73.00 Z" fill="#0F2233"/>
</svg>