<svg xmlns="http://www.w3.org/2000/svg" viewBox="0 0 400 90" width="400" height="90">
  <title>Gutleber &amp; Asociados — Logo monocromo</title>
  <defs>
    <clipPath id="pin-m">
      <path d="M8,40 A33,33 0 1,1 74,40 L41,92 Z"/>
    </clipPath>
  </defs>
  <path d="M8,40 A33,33 0 1,1 74,40 L41,92 Z" fill="#0F172A"/>
  <g clip-path="url(#pin-m)">
    <polygon points="41,18 74,46 68,72 14,72 8,46" fill="#2C3E50"/>
    <rect x="22" y="56" width="8" height="14" rx="1.5" fill="white" opacity="0.3"/>
    <rect x="32" y="50" width="8" height="20" rx="1.5" fill="white" opacity="0.5"/>
    <rect x="42" y="44" width="8" height="26" rx="1.5" fill="white" opacity="0.7"/>
    <rect x="52" y="38" width="8" height="32" rx="1.5" fill="white" opacity="0.9"/>
  </g>
  <polyline points="6,46 41,18 76,46" fill="none" stroke="white" stroke-width="2.8"
    stroke-linecap="round" stroke-linejoin="round" clip-path="url(#pin-m)"/>
  <line x1="92" y1="16" x2="92" y2="72" stroke="#0F172A" stroke-width="0.8" opacity="0.3"/>
  <text x="106" y="36" font-family="Georgia, 'Times New Roman', serif"
    font-size="24" font-weight="bold" fill="#0F172A" letter-spacing="2">GUTLEBER</text>
  <line x1="107" y1="44" x2="148" y2="44" stroke="#0F172A" stroke-width="0.8" opacity="0.4"/>
  <text x="196" y="48" font-family="Georgia, 'Times New Roman', serif"
    font-size="10" fill="#0F172A" letter-spacing="1" text-anchor="middle" opacity="0.7">&amp; ASOCIADOS</text>
  <line x1="244" y1="44" x2="285" y2="44" stroke="#0F172A" stroke-width="0.8" opacity="0.4"/>
  <text x="196" y="62" font-family="Arial, Helvetica, sans-serif"
    font-size="9" fill="#0F172A" letter-spacing="3.5" text-anchor="middle" opacity="0.5">INMOBILIARIA BOUTIQUE</text>
</svg>
