<svg xmlns="http://www.w3.org/2000/svg" viewBox="0 0 220 210" width="220" height="210">
  <title>Gutleber &amp; Asociados — Logo Vertical</title>
  <defs>
    <clipPath id="pin-v">
      <path d="M68,10 A42,42 0 1,1 152,10 L110,76 Z"/>
    </clipPath>
  </defs>
  <!-- Emblema centrado -->
  <path d="M68,10 A42,42 0 1,1 152,10 L110,76 Z" fill="#0F172A"/>
  <g clip-path="url(#pin-v)">
    <polygon points="110,-16 152,22 144,60 76,60 68,22" fill="#B45309"/>
    <rect x="82" y="36" width="10" height="18" rx="2" fill="#F8F7F4" opacity="0.35"/>
    <rect x="95" y="28" width="10" height="26" rx="2" fill="#F8F7F4" opacity="0.55"/>
    <rect x="108" y="20" width="10" height="34" rx="2" fill="#F8F7F4" opacity="0.78"/>
    <rect x="121" y="12" width="10" height="42" rx="2" fill="#F8F7F4"/>
  </g>
  <polyline points="66,22 110,-16 154,22" fill="none" stroke="#F8F7F4" stroke-width="3.5"
    stroke-linecap="round" stroke-linejoin="round" clip-path="url(#pin-v)"/>
  <!-- Wordmark centrado -->
  <text x="110" y="104" font-family="Georgia, 'Times New Roman', serif"
    font-size="26" font-weight="bold" fill="#0F172A" letter-spacing="2" text-anchor="middle">GUTLEBER</text>
  <line x1="34" y1="112" x2="86" y2="112" stroke="#B45309" stroke-width="0.8"/>
  <text x="110" y="116" font-family="Georgia, 'Times New Roman', serif"
    font-size="10" fill="#B45309" letter-spacing="1.5" text-anchor="middle">&amp; ASOCIADOS</text>
  <line x1="134" y1="112" x2="186" y2="112" stroke="#B45309" stroke-width="0.8"/>
  <line x1="44" y1="128" x2="176" y2="128" stroke="#B45309" stroke-width="0.5" opacity="0.4"/>
  <text x="110" y="144" font-family="Arial, Helvetica, sans-serif"
    font-size="9.5" fill="#0F172A" letter-spacing="3.5" text-anchor="middle">INMOBILIARIA BOUTIQUE</text>
</svg>
